<svg xmlns="http://www.w3.org/2000/svg" xmlns:xlink="http://www.w3.org/1999/xlink" width="50" zoomAndPan="magnify" viewBox="0 0 37.5 37.499999" height="50" preserveAspectRatio="xMidYMid meet" version="1.0"><defs><clipPath id="312abb8a53"><path d="M 1.574219 13.269531 L 36.074219 13.269531 L 36.074219 24.492188 L 1.574219 24.492188 Z M 1.574219 13.269531 " clip-rule="nonzero"/></clipPath></defs><g clip-path="url(#312abb8a53)"><path fill="#00bf63" d="M 18.828125 24.492188 C 18.441406 24.492188 18.0625 24.347656 17.769531 24.09375 C 17.457031 23.820312 17.28125 23.460938 17.152344 23.144531 C 16.746094 22.160156 16.539062 21.085938 16.539062 19.960938 C 16.539062 18.132812 17.09375 16.414062 18.078125 15.164062 C 17.453125 14.640625 16.753906 14.371094 16.019531 14.371094 C 15.289062 14.371094 14.585938 14.640625 13.964844 15.164062 C 14.945312 16.414062 15.5 18.132812 15.5 19.960938 C 15.5 21.066406 15.300781 22.128906 14.902344 23.117188 C 14.769531 23.441406 14.59375 23.808594 14.28125 24.085938 C 13.984375 24.347656 13.605469 24.492188 13.214844 24.492188 C 13.210938 24.492188 13.210938 24.492188 13.207031 24.492188 C 12.8125 24.488281 12.433594 24.34375 12.136719 24.078125 C 11.835938 23.808594 11.664062 23.457031 11.539062 23.148438 C 11.136719 22.179688 10.925781 21.074219 10.925781 19.960938 C 10.925781 18.132812 11.480469 16.417969 12.460938 15.164062 C 11.839844 14.640625 11.136719 14.371094 10.40625 14.371094 C 9.363281 14.371094 8.371094 14.929688 7.613281 15.949219 C 6.824219 17.015625 6.386719 18.4375 6.386719 19.960938 C 6.386719 20.261719 6.148438 20.507812 5.851562 20.507812 L 2.113281 20.507812 C 1.816406 20.507812 1.574219 20.261719 1.574219 19.960938 C 1.574219 19.65625 1.816406 19.410156 2.113281 19.410156 L 5.328125 19.410156 C 5.421875 17.855469 5.921875 16.410156 6.753906 15.285156 C 7.21875 14.660156 7.761719 14.167969 8.371094 13.824219 C 9.011719 13.457031 9.699219 13.269531 10.40625 13.269531 C 11.003906 13.269531 11.589844 13.402344 12.144531 13.667969 C 12.519531 13.84375 12.878906 14.082031 13.214844 14.371094 C 13.546875 14.082031 13.90625 13.84375 14.285156 13.667969 C 14.839844 13.402344 15.421875 13.269531 16.019531 13.269531 C 16.617188 13.269531 17.203125 13.402344 17.757812 13.667969 C 18.136719 13.84375 18.492188 14.082031 18.828125 14.371094 C 19.160156 14.082031 19.519531 13.84375 19.898438 13.667969 C 20.453125 13.402344 21.039062 13.269531 21.636719 13.269531 C 22.230469 13.269531 22.816406 13.402344 23.371094 13.667969 C 23.75 13.84375 24.109375 14.082031 24.441406 14.371094 C 24.777344 14.082031 25.132812 13.84375 25.511719 13.667969 C 26.066406 13.402344 26.652344 13.269531 27.25 13.269531 C 27.957031 13.269531 28.644531 13.457031 29.285156 13.824219 C 29.894531 14.167969 30.4375 14.660156 30.902344 15.285156 C 31.734375 16.410156 32.234375 17.855469 32.328125 19.410156 L 35.539062 19.410156 C 35.835938 19.410156 36.078125 19.65625 36.078125 19.960938 C 36.078125 20.261719 35.835938 20.507812 35.539062 20.507812 L 31.804688 20.507812 C 31.507812 20.507812 31.265625 20.261719 31.265625 19.960938 C 31.265625 18.4375 30.832031 17.015625 30.039062 15.949219 C 29.285156 14.929688 28.292969 14.371094 27.25 14.371094 C 26.515625 14.371094 25.8125 14.640625 25.191406 15.164062 C 26.175781 16.417969 26.730469 18.132812 26.730469 19.960938 C 26.730469 20.53125 26.679688 21.082031 26.582031 21.589844 C 26.46875 22.191406 26.335938 22.675781 26.179688 23.078125 C 25.914062 23.761719 25.460938 24.238281 24.90625 24.414062 C 24.441406 24.5625 23.925781 24.484375 23.53125 24.207031 C 23.175781 23.957031 22.972656 23.597656 22.851562 23.34375 C 22.273438 22.152344 22.152344 20.84375 22.152344 19.960938 C 22.152344 18.132812 22.707031 16.417969 23.691406 15.164062 C 23.070312 14.644531 22.367188 14.371094 21.632812 14.371094 C 20.902344 14.371094 20.199219 14.644531 19.578125 15.164062 C 20.5625 16.417969 21.117188 18.132812 21.117188 19.960938 C 21.117188 21.089844 20.910156 22.164062 20.5 23.148438 C 20.371094 23.464844 20.195312 23.820312 19.886719 24.089844 C 19.59375 24.351562 19.214844 24.492188 18.828125 24.492188 Z M 18.828125 15.96875 C 18.054688 17.015625 17.617188 18.4375 17.617188 19.957031 C 17.617188 20.925781 17.800781 21.878906 18.144531 22.71875 C 18.226562 22.914062 18.328125 23.132812 18.472656 23.257812 C 18.570312 23.34375 18.699219 23.390625 18.828125 23.390625 C 18.957031 23.390625 19.085938 23.339844 19.183594 23.257812 C 19.324219 23.132812 19.425781 22.917969 19.507812 22.71875 C 19.855469 21.882812 20.039062 20.925781 20.039062 19.957031 C 20.039062 18.4375 19.601562 17.015625 18.828125 15.96875 Z M 13.214844 15.96875 C 12.4375 17.015625 12.003906 18.4375 12.003906 19.957031 C 12.003906 20.929688 12.183594 21.882812 12.53125 22.722656 C 12.613281 22.914062 12.710938 23.128906 12.847656 23.25 C 12.949219 23.339844 13.078125 23.390625 13.210938 23.390625 C 13.34375 23.390625 13.476562 23.339844 13.578125 23.253906 C 13.71875 23.125 13.816406 22.914062 13.902344 22.699219 C 14.25 21.84375 14.421875 20.921875 14.421875 19.957031 C 14.421875 18.4375 13.988281 17.015625 13.214844 15.96875 Z M 24.441406 15.96875 C 23.667969 17.015625 23.230469 18.4375 23.230469 19.957031 C 23.230469 21.042969 23.441406 22.074219 23.820312 22.855469 C 23.925781 23.082031 24.027344 23.222656 24.140625 23.300781 C 24.261719 23.386719 24.4375 23.410156 24.585938 23.363281 C 24.917969 23.257812 25.109375 22.84375 25.179688 22.671875 C 25.308594 22.332031 25.421875 21.910156 25.523438 21.378906 C 25.609375 20.9375 25.652344 20.460938 25.652344 19.957031 C 25.652344 18.4375 25.214844 17.015625 24.441406 15.96875 " fill-opacity="1" fill-rule="evenodd"/></g></svg>